HIERARCHY
ROOT RootJoint
{
    OFFSET   0.000000   0.000000   0.000000
    CHANNELS 6 Xposition Yposition Zposition Xrotation Yrotation Zrotation
    JOINT pelvis_lowerback
    {
        OFFSET   0.000000   0.093605   0.000000
        CHANNELS 3 Xrotation Yrotation Zrotation
        JOINT lowerback_torso
        {
            OFFSET   0.000000   0.100000   0.000000
            CHANNELS 3 Xrotation Yrotation Zrotation
            JOINT torso_head
            {
                OFFSET   0.000000   0.282350   0.000000
                CHANNELS 3 Xrotation Yrotation Zrotation
                End Site
                {
                    OFFSET   0.000000   0.192650   0.000000
                }
            }
            JOINT rTorso_Clavicle
            {
                OFFSET  -0.001000   0.157500   0.000000
                CHANNELS 3 Xrotation Yrotation Zrotation
                JOINT rShoulder
                {
                    OFFSET  -0.117647   0.000000   0.000000
                    CHANNELS 3 Xrotation Yrotation Zrotation
                    JOINT rElbow
                    {
                        OFFSET  -0.245000   0.000000   0.000000
                        CHANNELS 3 Xrotation Yrotation Zrotation
                        JOINT rWrist
                        {
                            OFFSET  -0.240000   0.000000   0.000000
                            CHANNELS 3 Xrotation Yrotation Zrotation
                            End Site
                            {
                                OFFSET  -0.116353  -0.002500   0.000000
                            }
                        }
                    }
                }
            }
            JOINT lTorso_Clavicle
            {
                OFFSET   0.001000   0.157500   0.000000
                CHANNELS 3 Xrotation Yrotation Zrotation
                JOINT lShoulder
                {
                    OFFSET   0.117647   0.000000   0.000000
                    CHANNELS 3 Xrotation Yrotation Zrotation
                    JOINT lElbow
                    {
                        OFFSET   0.245000   0.000000   0.000000
                        CHANNELS 3 Xrotation Yrotation Zrotation
                        JOINT lWrist
                        {
                            OFFSET   0.240000   0.000000   0.000000
                            CHANNELS 3 Xrotation Yrotation Zrotation
                            End Site
                            {
                                OFFSET   0.116353  -0.002500   0.000000
                            }
                        }
                    }
                }
            }
        }
    }
    JOINT rHip
    {
        OFFSET  -0.100000  -0.051395   0.000000
        CHANNELS 3 Xrotation Yrotation Zrotation
        JOINT rKnee
        {
            OFFSET   0.000000  -0.410000   0.000000
            CHANNELS 3 Xrotation Yrotation Zrotation
            JOINT rAnkle
            {
                OFFSET   0.000000  -0.390000   0.000000
                CHANNELS 3 Xrotation Yrotation Zrotation
                JOINT rToeJoint
                {
                    OFFSET   0.000000  -0.050000   0.130000
                    CHANNELS 3 Xrotation Yrotation Zrotation
                    End Site
                    {
                        OFFSET  -0.010000   0.002000   0.060000
                    }
                }
            }
        }
    }
    JOINT lHip
    {
        OFFSET   0.100000  -0.051395   0.000000
        CHANNELS 3 Xrotation Yrotation Zrotation
        JOINT lKnee
        {
            OFFSET   0.000000  -0.410000   0.000000
            CHANNELS 3 Xrotation Yrotation Zrotation
            JOINT lAnkle
            {
                OFFSET   0.000000  -0.390000   0.000000
                CHANNELS 3 Xrotation Yrotation Zrotation
                JOINT lToeJoint
                {
                    OFFSET   0.000000  -0.050000   0.130000
                    CHANNELS 3 Xrotation Yrotation Zrotation
                    End Site
                    {
                        OFFSET   0.010000   0.002000   0.060000
                    }
                }
            }
        }
    }
}
MOTION
Frames: 12
Frame Time:   0.008333
  0.032379   0.925443   0.048389   1.867300  -8.939500  -2.485100  -3.966600   2.103900  -0.918200  11.282700   0.318700   1.372400  13.019590 -14.743886   2.820909  14.729900 -19.054299   5.165500 -22.520800  25.160899  83.993201   0.000001   9.976300  -0.000005 -25.410501  -2.512702  14.089105  18.968099  13.343900  -0.611000 -26.511099 -27.497301 -88.362099  -0.000001 -10.068002  -0.000002 -16.677700  -0.469000 -19.849101  -3.348900  -5.678000  -0.144800   8.259800  -0.000000   0.000000 -19.683500   1.120600  -1.814700   9.235400   0.000000   0.000000  -1.804800   4.440100   9.122000  10.689100  -0.000000  -0.000000 -14.426200   1.620700  -8.120300  -6.638800  -0.000000   0.000000
  0.032930   0.923874   0.049959   1.510379  -8.837112  -1.851413  -3.456169   2.093669  -1.248170  10.917984   0.160541   0.910697  13.082871 -13.891797   2.662936  13.928383 -19.132831   3.657698 -21.177693  24.990249  82.209273   0.003543   9.824352   0.000436 -22.399339  -2.494341  16.658370  19.007904  13.896522   0.413114 -25.207509 -27.582254 -86.622612  -0.001221 -10.134834   0.000065 -16.491918   3.709996 -24.665979  -2.529970  -5.331782  -1.050390   7.116516  -0.003118  -0.003658 -17.285826   0.514115  -1.680569   8.192082  -0.000078   0.000998  -1.054549   4.137801   8.268657  10.200620  -0.000350   0.001276 -13.113164   1.775922  -7.564737  -6.622580  -0.000062  -0.000002
  0.033622   0.921056   0.051834   1.266790  -8.520682  -1.173413  -3.105930   2.030832  -1.521809  10.395784  -0.001542   0.448290  13.080856 -13.104298   2.468559  12.984192 -19.570108   1.240659 -19.607619  24.680915  79.469050   0.012019   9.585422   0.001038 -19.970080  -2.319123  17.913391  18.640303  14.939419   2.359149 -23.842978 -27.534400 -83.947557  -0.007341 -10.307997  -0.000420 -15.453358   4.544430 -26.405515  -1.705085  -5.017334  -2.069210   5.918619  -0.006765  -0.008963 -15.020372  -0.055563  -1.532977   7.429771  -0.000810  -0.000044  -0.409418   3.862756   7.401176   9.658794  -0.000847   0.001218 -11.879300   1.929135  -7.046746  -6.519657  -0.000459   0.000194
  0.034204   0.920689   0.054124   0.955627  -8.114905  -1.090855  -2.835071   1.931077  -1.320947   9.895759  -0.161605   0.235618  13.111312 -12.364464   2.305498  11.888320 -20.113708  -1.599760 -17.921182  24.224413  76.083339   0.023566   9.285839   0.001321 -17.960199  -2.108022  17.692736  17.943182  16.085000   4.671485 -22.483390 -27.365474 -80.699560  -0.012877 -10.457718  -0.001008 -14.781111   4.613014 -26.347941  -1.007258  -4.833384  -2.268802   5.193150  -0.006273  -0.010941 -12.485173  -0.682767  -1.202266   6.815733   0.000954  -0.000399   0.284620   3.604910   7.089869   9.123275  -0.001493   0.000654 -10.720427   2.087874  -6.561333  -6.362764  -0.000921   0.000610
  0.035149   0.920599   0.056914   0.674386  -7.579071  -0.807950  -2.669650   1.789344  -1.318969   9.315259  -0.363811   0.017811  13.123579 -11.672531   2.159243  10.706306 -20.741303  -4.787961 -16.224558  23.643727  72.467608   0.034649   8.982644   0.001019 -16.302681  -1.982524  16.848070  16.989389  17.328157   7.443836 -21.156022 -27.096734 -77.117319  -0.018193 -10.603679  -0.001690 -14.286267   4.416679 -25.550965  -0.250784  -4.629623  -2.674165   4.426697  -0.006086  -0.013779 -10.303581  -1.210523  -0.944737   6.222553   0.001602  -0.001802   0.962682   3.366844   6.498082   8.640485  -0.002416  -0.000367  -9.644212   2.244655  -6.110802  -6.241123  -0.001050   0.001010
  0.036365   0.920503   0.060085   0.431685  -6.999902  -0.462078  -2.608676   1.631970  -1.351059   8.667602  -0.587103  -0.207707  13.120555 -11.026455   2.016552   9.416941 -21.366160  -8.208838 -14.566186  22.944618  68.698434   0.044187   8.687230   0.000139 -14.948226  -1.930228  15.623107  15.825154  18.565122  10.498419 -19.875247 -26.736863 -73.329086  -0.022619 -10.741048  -0.002373 -13.886382   4.094295 -24.287754   0.514581  -4.429318  -3.146269   3.655132  -0.006004  -0.016438  -8.301314  -1.683943  -0.703211   5.663693   0.001752  -0.003263   1.617692   3.150876   5.819479   8.204273  -0.003213  -0.001374  -8.642622   2.397953  -5.694039  -6.141948  -0.001039   0.001293
  0.037787   0.920309   0.063588   0.222194  -6.418547  -0.104123  -2.636701   1.468172  -1.383478   7.967053  -0.816025  -0.425205  13.107870 -10.423215   1.882604   8.016758 -21.932227 -11.795555 -12.989771  22.140639  64.854354   0.051340   8.411945  -0.001170 -13.860458  -1.910326  14.179993  14.487112  19.742294  13.749977 -18.658336 -26.296400 -69.433465  -0.026291 -10.873980  -0.003054 -13.546644   3.696913 -22.765761   1.269775  -4.242718  -3.633517   2.909759  -0.005909  -0.018397  -6.441532  -2.113687  -0.470249   5.147514   0.001619  -0.004426   2.257325   2.950559   5.128229   7.808879  -0.003777  -0.002176  -7.709089   2.547318  -5.308202  -6.055365  -0.000971   0.001471
  0.038919   0.919784   0.065394   0.146074  -6.009216  -0.173549  -2.772175   1.387394  -1.286862   7.646498  -0.991690  -0.141434  12.664852  -9.833869   1.784130   6.857096 -21.531896 -15.247643 -12.076763  21.241297  60.806503   0.096480   7.445431  -0.000291 -12.967601  -2.074854  13.144514  12.726059  19.737658  16.817516 -17.408250 -25.891324 -65.274529   0.063485  -9.481591  -0.001015 -13.272015   3.137687 -21.930321   1.356858  -3.890294  -3.643542   3.270530  -0.004449  -0.012311  -6.369594  -2.356333  -0.285624   5.307938   0.001161  -0.002797   2.532107   2.806050   5.015397   7.359358  -0.003835  -0.002620  -6.458629   2.455424  -4.805773  -4.708535  -0.005269   0.003600
  0.040042   0.919046   0.066555   0.058240  -5.631912  -0.366431  -2.784826   1.293909  -1.144687   7.402302  -1.153898   0.225058  12.245096  -9.282105   1.732334   5.697504 -20.928064 -18.505890 -11.381054  20.347777  56.788152   0.126833   6.564350   0.000066 -12.225429  -2.358763  12.124343  11.021764  19.502591  19.724418 -16.280700 -25.435113 -61.103967   0.129462  -8.161508  -0.000447 -12.840579   2.908032 -21.042132   1.372554  -3.568077  -3.521713   3.711106  -0.003233  -0.007193  -6.281335  -2.589576  -0.087808   5.354463   0.000883  -0.002046   2.706098   2.650767   5.052703   6.873962  -0.003824  -0.002898  -5.284676   2.378217  -4.334061  -3.406536  -0.008166   0.004823
  0.041159   0.919116   0.067300   0.063364  -5.322259  -0.196799  -2.790355   1.235342  -1.329461   7.181546  -1.291691   0.460626  11.872352  -8.766371   1.688886   4.620012 -20.232767 -21.445273 -10.846346  19.456419  52.889653   0.144505   5.774418  -0.000449 -11.661896  -2.549470  11.190674   9.411486  19.160154  22.447776 -15.232600 -24.912602 -56.920640   0.174138  -6.937240   0.000252 -12.420158   2.690772 -20.068626   1.298362  -3.246921  -3.762424   4.038582  -0.002290  -0.003956  -6.299262  -2.797565   0.061713   5.415610   0.000676  -0.001407   2.975984   2.480985   4.790779   6.366918  -0.003521  -0.002849  -5.290518   2.280225  -4.169010  -3.661203  -0.006424   0.003820
  0.042245   0.919545   0.067578   0.128258  -5.025018  -0.029193  -2.748627   1.180294  -1.458918   6.977660  -1.416752   0.660332  11.520230  -8.287041   1.638438   3.621271 -19.495848 -24.201583 -10.432745  18.560392  49.034702   0.153483   5.061444  -0.001052 -11.242631  -2.634474  10.365875   7.912875  18.743948  24.990803 -14.277374 -24.340901 -52.801036   0.202141  -5.815106   0.000686 -12.047316   2.415382 -19.199699   1.171864  -2.964297  -3.990141   4.274616  -0.001618  -0.001978  -6.347780  -3.014861   0.194285   5.372073   0.000561  -0.001265   3.173370   2.310498   4.538328   5.777005  -0.003343  -0.002844  -5.023453   2.174403  -3.964033  -4.070579  -0.004788   0.003031
  0.043245   0.920150   0.067507   0.216970  -4.728796   0.109854  -2.657858   1.128384  -1.544030   6.812357  -1.529653   0.860007  11.193562  -7.839837   1.594695   2.708907 -18.743732 -26.787110 -10.115660  17.656377  45.204799   0.156570   4.410359  -0.001602 -10.904511  -2.645851   9.608788   6.528534  18.282524  27.368996 -13.397246 -23.718070 -48.727092   0.218113  -4.781451   0.000743 -11.713591   2.093982 -18.434566   1.027463  -2.681987  -4.162046   4.464047  -0.001157  -0.000634  -6.381806  -3.197780   0.324652   5.418077   0.000421  -0.000851   3.304681   2.134942   4.324667   5.199531  -0.003155  -0.002818  -4.637189   2.068362  -3.733809  -4.523817  -0.003299   0.002407
